<svg width="24" height="24" viewBox="0 0 24 24" fill="none" xmlns="http://www.w3.org/2000/svg">
<path d="M12 2C6.5 2 2 6.5 2 12C2 17.5 6.5 22 12 22C17.5 22 22 17.5 22 12C22 6.5 17.5 2 12 2Z" fill="#29B6F6"/>
<path d="M17 7.5L15.15 17.05C15.15 17.05 15.05 17.5 14.55 17.5C14.25 17.5 14.1 17.35 14.1 17.35L10 14L8 13L5.45 12.3C5.45 12.3 5 12.15 5 11.8C5 11.5 5.45 11.35 5.45 11.35L16.1 7.1C16.1 7.1 16.45 7 16.65 7C16.8 7 16.95 7.05 16.95 7.25C17 7.4 17 7.5 17 7.5Z" fill="white"/>
<path d="M11.5 15.25L9.80005 16.95C9.80005 16.95 9.75005 17 9.65005 17C9.60005 17 9.60005 17 9.55005 17L10.05 14L11.5 15.25Z" fill="#B0BEC5"/>
<path d="M14.95 9.10001C14.85 9.00001 14.7 8.95001 14.6 9.05001L8 13C8 13 9.05 15.95 9.2 16.45C9.35 16.95 9.5 16.95 9.5 16.95L10 13.95L14.9 9.40001C15 9.35001 15.05 9.20001 14.95 9.10001Z" fill="#CFD8DC"/>
</svg>
